<?xml version="1.0" encoding="UTF-8" standalone="no"?>
<!-- Created with Inkscape (http://www.inkscape.org/) -->

<svg
   width="210mm"
   height="297mm"
   viewBox="0 0 210 297"
   version="1.1"
   id="svg5"
   inkscape:version="1.2.2 (732a01da63, 2022-12-09)"
   sodipodi:docname="Zeichnung.svg"
   xmlns:inkscape="http://www.inkscape.org/namespaces/inkscape"
   xmlns:sodipodi="http://sodipodi.sourceforge.net/DTD/sodipodi-0.dtd"
   xmlns="http://www.w3.org/2000/svg"
   xmlns:svg="http://www.w3.org/2000/svg">
  <sodipodi:namedview
     id="namedview7"
     pagecolor="#ffffff"
     bordercolor="#999999"
     borderopacity="1"
     inkscape:showpageshadow="0"
     inkscape:pageopacity="0"
     inkscape:pagecheckerboard="0"
     inkscape:deskcolor="#d1d1d1"
     inkscape:document-units="mm"
     showgrid="true"
     inkscape:zoom="0.52724989"
     inkscape:cx="-17.069705"
     inkscape:cy="654.33869"
     inkscape:window-width="1920"
     inkscape:window-height="1017"
     inkscape:window-x="-8"
     inkscape:window-y="-8"
     inkscape:window-maximized="1"
     inkscape:current-layer="layer1">
    <inkscape:grid
       type="xygrid"
       id="grid243" />
  </sodipodi:namedview>
  <defs
     id="defs2" />
  <g
     inkscape:label="Ebene 1"
     inkscape:groupmode="layer"
     id="layer1">
    <circle
       style="fill:#ff0000;stroke-width:0.048179"
       id="path630"
       cx="38.511497"
       cy="50.800003"
       r="16.933332"
       inkscape:export-filename="path64.png"
       inkscape:export-xdpi="48"
       inkscape:export-ydpi="48" />
    <path
       id="path111-2-6"
       style="fill:#000000;stroke-width:0.0540592"
       d="M 38.377662,39.374463 A 11.799732,2.6202571 0 0 0 26.577957,41.994624 11.799732,2.6202571 0 0 0 38.377662,44.614892 11.799732,2.6202571 0 0 0 50.17737,41.994624 11.799732,2.6202571 0 0 0 38.377662,39.374463 Z m 0.03648,0.520985 A 11.021188,1.9429235 0 0 1 49.435367,41.838382 11.021188,1.9429235 0 0 1 38.414142,43.781317 11.021188,1.9429235 0 0 1 27.39302,41.838382 11.021188,1.9429235 0 0 1 38.414142,39.895448 Z" />
    <path
       id="path111-2-6-5"
       style="fill:#000000;stroke-width:0.0540592"
       d="m 27.101689,46.739822 c -0.62147,-0.464654 -0.534501,0.513935 -0.535859,0.777667 -2.6e-5,1.447129 5.282886,2.620263 11.799707,2.620267 6.516819,-2e-6 11.799734,-1.173138 11.799708,-2.620267 -0.0019,-0.254463 -0.17069,-0.507505 -0.501085,-0.751162 l -0.0061,0.0092 0.01254,-0.01954 c 0.426929,0.505669 0.214628,0.30144 0.214879,0.312137 3.7e-5,1.073054 -5.39661,2.236015 -11.483484,2.236011 -6.086835,-6e-6 -11.288786,-1.22158 -11.288748,-2.294626 0.0015,-0.01069 -0.09388,0.134914 -0.0063,-0.253522 l -0.224293,0.377743 z"
       sodipodi:nodetypes="ccscccccscccc" />
    <path
       id="path111-2-6-5-7"
       style="fill:#000000;stroke-width:0.0540592"
       d="m 27.107901,57.665603 c -0.62147,-0.464654 -0.534501,0.513934 -0.535858,0.777667 -2.7e-5,1.447129 5.282885,2.620264 11.799706,2.620268 6.51682,-2e-6 11.799734,-1.173139 11.799708,-2.620268 -0.0019,-0.254463 -0.170689,-0.507506 -0.501085,-0.751162 l -0.0061,0.0092 0.01254,-0.01954 c 0.426931,0.50567 0.21463,0.301441 0.21488,0.312137 3.8e-5,1.073055 -5.396609,2.236016 -11.483483,2.236012 -6.086835,-6e-6 -11.288786,-1.22158 -11.288748,-2.294627 0.0015,-0.01069 -0.09388,0.134914 -0.0063,-0.253522 l -0.224293,0.377744 z"
       sodipodi:nodetypes="ccscccccscccc" />
    <path
       id="path111-2-6-5-2"
       style="fill:#000000;stroke-width:0.0540592"
       d="m 27.107901,52.249819 c -0.62147,-0.464654 -0.534501,0.513934 -0.535858,0.777667 -2.7e-5,1.447129 5.282885,2.620263 11.799708,2.620268 6.516818,-2e-6 11.799732,-1.173139 11.799706,-2.620268 -0.0019,-0.254463 -0.170689,-0.507506 -0.501085,-0.751162 l -0.0061,0.0092 0.01254,-0.01954 c 0.426931,0.50567 0.21463,0.301441 0.21488,0.312137 3.8e-5,1.073055 -5.396609,2.236016 -11.483481,2.236012 -6.086837,-6e-6 -11.288788,-1.22158 -11.28875,-2.294627 0.0015,-0.01069 -0.09388,0.134914 -0.0063,-0.253522 l -0.224293,0.377744 z"
       sodipodi:nodetypes="ccscccccscccc" />
    <rect
       style="fill:#000000;stroke-width:0.132679"
       id="rect345"
       width="0.53331137"
       height="16.564016"
       x="26.55978"
       y="41.996315" />
    <rect
       style="fill:#000000;stroke-width:0.132679"
       id="rect345-8"
       width="0.53331137"
       height="16.564016"
       x="49.63184"
       y="41.923115" />
  </g>
</svg>
